<mxfile host="app.diagrams.net" modified="2024-03-18T21:46:20.987Z" agent="Mozilla/5.0 (Windows NT 10.0; Win64; x64) AppleWebKit/537.36 (KHTML, like Gecko) Chrome/120.0.0.0 YaBrowser/24.1.0.0 Safari/537.36" etag="uo5yyLGONRQPDx3wnyeq" version="24.0.4" type="device">
  <diagram name="Страница — 1" id="XKVFJ1GbbV7rKd_0JlMm">
    <mxGraphModel dx="-271" dy="762" grid="1" gridSize="10" guides="1" tooltips="1" connect="1" arrows="1" fold="1" page="1" pageScale="1" pageWidth="827" pageHeight="1169" math="0" shadow="0">
      <root>
        <mxCell id="0" />
        <mxCell id="1" parent="0" />
        <mxCell id="zZ4p3Ma7blZlyQDrdSuo-1" value="Fact" style="swimlane;fontStyle=0;childLayout=stackLayout;horizontal=1;startSize=30;horizontalStack=0;resizeParent=1;resizeParentMax=0;resizeLast=0;collapsible=1;marginBottom=0;whiteSpace=wrap;html=1;fillColor=#b0e3e6;strokeColor=#0e8088;" parent="1" vertex="1">
          <mxGeometry x="2197" y="710" width="70" height="120" as="geometry" />
        </mxCell>
        <mxCell id="zZ4p3Ma7blZlyQDrdSuo-2" value="_id: string^" style="text;strokeColor=none;fillColor=none;align=left;verticalAlign=middle;spacingLeft=4;spacingRight=4;overflow=hidden;points=[[0,0.5],[1,0.5]];portConstraint=eastwest;rotatable=0;whiteSpace=wrap;html=1;" parent="zZ4p3Ma7blZlyQDrdSuo-1" vertex="1">
          <mxGeometry y="30" width="70" height="30" as="geometry" />
        </mxCell>
        <mxCell id="zZ4p3Ma7blZlyQDrdSuo-3" value="en: string" style="text;strokeColor=none;fillColor=none;align=left;verticalAlign=middle;spacingLeft=4;spacingRight=4;overflow=hidden;points=[[0,0.5],[1,0.5]];portConstraint=eastwest;rotatable=0;whiteSpace=wrap;html=1;" parent="zZ4p3Ma7blZlyQDrdSuo-1" vertex="1">
          <mxGeometry y="60" width="70" height="30" as="geometry" />
        </mxCell>
        <mxCell id="zZ4p3Ma7blZlyQDrdSuo-4" value="ru: string" style="text;strokeColor=none;fillColor=none;align=left;verticalAlign=middle;spacingLeft=4;spacingRight=4;overflow=hidden;points=[[0,0.5],[1,0.5]];portConstraint=eastwest;rotatable=0;whiteSpace=wrap;html=1;" parent="zZ4p3Ma7blZlyQDrdSuo-1" vertex="1">
          <mxGeometry y="90" width="70" height="30" as="geometry" />
        </mxCell>
        <mxCell id="zZ4p3Ma7blZlyQDrdSuo-5" value="Genre" style="swimlane;fontStyle=0;childLayout=stackLayout;horizontal=1;startSize=30;horizontalStack=0;resizeParent=1;resizeParentMax=0;resizeLast=0;collapsible=1;marginBottom=0;whiteSpace=wrap;html=1;fillColor=#b0e3e6;strokeColor=#0e8088;" parent="1" vertex="1">
          <mxGeometry x="2068" y="980" width="140" height="120" as="geometry" />
        </mxCell>
        <mxCell id="zZ4p3Ma7blZlyQDrdSuo-6" value="_id: string^" style="text;strokeColor=none;fillColor=none;align=left;verticalAlign=middle;spacingLeft=4;spacingRight=4;overflow=hidden;points=[[0,0.5],[1,0.5]];portConstraint=eastwest;rotatable=0;whiteSpace=wrap;html=1;" parent="zZ4p3Ma7blZlyQDrdSuo-5" vertex="1">
          <mxGeometry y="30" width="140" height="30" as="geometry" />
        </mxCell>
        <mxCell id="zZ4p3Ma7blZlyQDrdSuo-7" value="name:&amp;nbsp;&lt;span style=&quot;text-align: center;&quot;&gt;language&lt;/span&gt;" style="text;strokeColor=#b85450;fillColor=#f8cecc;align=left;verticalAlign=middle;spacingLeft=4;spacingRight=4;overflow=hidden;points=[[0,0.5],[1,0.5]];portConstraint=eastwest;rotatable=0;whiteSpace=wrap;html=1;" parent="zZ4p3Ma7blZlyQDrdSuo-5" vertex="1">
          <mxGeometry y="60" width="140" height="30" as="geometry" />
        </mxCell>
        <mxCell id="zZ4p3Ma7blZlyQDrdSuo-8" value="description:&amp;nbsp;&lt;span style=&quot;text-align: center;&quot;&gt;language&lt;/span&gt;" style="text;strokeColor=#b85450;fillColor=#f8cecc;align=left;verticalAlign=middle;spacingLeft=4;spacingRight=4;overflow=hidden;points=[[0,0.5],[1,0.5]];portConstraint=eastwest;rotatable=0;whiteSpace=wrap;html=1;" parent="zZ4p3Ma7blZlyQDrdSuo-5" vertex="1">
          <mxGeometry y="90" width="140" height="30" as="geometry" />
        </mxCell>
        <mxCell id="zZ4p3Ma7blZlyQDrdSuo-10" value="language" style="swimlane;fontStyle=0;childLayout=stackLayout;horizontal=1;startSize=30;horizontalStack=0;resizeParent=1;resizeParentMax=0;resizeLast=0;collapsible=1;marginBottom=0;whiteSpace=wrap;html=1;fillColor=#f8cecc;strokeColor=#b85450;" parent="1" vertex="1">
          <mxGeometry x="1760" y="710" width="90" height="90" as="geometry" />
        </mxCell>
        <mxCell id="zZ4p3Ma7blZlyQDrdSuo-11" value="en: string | null" style="text;strokeColor=none;fillColor=none;align=left;verticalAlign=middle;spacingLeft=4;spacingRight=4;overflow=hidden;points=[[0,0.5],[1,0.5]];portConstraint=eastwest;rotatable=0;whiteSpace=wrap;html=1;" parent="zZ4p3Ma7blZlyQDrdSuo-10" vertex="1">
          <mxGeometry y="30" width="90" height="30" as="geometry" />
        </mxCell>
        <mxCell id="zZ4p3Ma7blZlyQDrdSuo-12" value="ru: string | null" style="text;strokeColor=none;fillColor=none;align=left;verticalAlign=middle;spacingLeft=4;spacingRight=4;overflow=hidden;points=[[0,0.5],[1,0.5]];portConstraint=eastwest;rotatable=0;whiteSpace=wrap;html=1;" parent="zZ4p3Ma7blZlyQDrdSuo-10" vertex="1">
          <mxGeometry y="60" width="90" height="30" as="geometry" />
        </mxCell>
        <mxCell id="zZ4p3Ma7blZlyQDrdSuo-22" value="Platform" style="swimlane;fontStyle=0;childLayout=stackLayout;horizontal=1;startSize=30;horizontalStack=0;resizeParent=1;resizeParentMax=0;resizeLast=0;collapsible=1;marginBottom=0;whiteSpace=wrap;html=1;glass=0;shadow=0;textShadow=0;rounded=0;fillColor=#b0e3e6;strokeColor=#0e8088;" parent="1" vertex="1">
          <mxGeometry x="2780" y="480" width="100" height="120" as="geometry" />
        </mxCell>
        <mxCell id="zZ4p3Ma7blZlyQDrdSuo-23" value="_id: string^" style="text;strokeColor=none;fillColor=none;align=left;verticalAlign=middle;spacingLeft=4;spacingRight=4;overflow=hidden;points=[[0,0.5],[1,0.5]];portConstraint=eastwest;rotatable=0;whiteSpace=wrap;html=1;" parent="zZ4p3Ma7blZlyQDrdSuo-22" vertex="1">
          <mxGeometry y="30" width="100" height="30" as="geometry" />
        </mxCell>
        <mxCell id="zZ4p3Ma7blZlyQDrdSuo-24" value="name:&amp;nbsp;&lt;span style=&quot;text-align: center;&quot;&gt;language&lt;/span&gt;" style="text;strokeColor=#b85450;fillColor=#f8cecc;align=left;verticalAlign=middle;spacingLeft=4;spacingRight=4;overflow=hidden;points=[[0,0.5],[1,0.5]];portConstraint=eastwest;rotatable=0;whiteSpace=wrap;html=1;" parent="zZ4p3Ma7blZlyQDrdSuo-22" vertex="1">
          <mxGeometry y="60" width="100" height="30" as="geometry" />
        </mxCell>
        <mxCell id="zZ4p3Ma7blZlyQDrdSuo-30" value="&lt;div style=&quot;text-align: center;&quot;&gt;&lt;span style=&quot;background-color: initial;&quot;&gt;logo: string | null&lt;/span&gt;&lt;/div&gt;" style="text;strokeColor=none;fillColor=none;align=left;verticalAlign=middle;spacingLeft=4;spacingRight=4;overflow=hidden;points=[[0,0.5],[1,0.5]];portConstraint=eastwest;rotatable=0;whiteSpace=wrap;html=1;" parent="zZ4p3Ma7blZlyQDrdSuo-22" vertex="1">
          <mxGeometry y="90" width="100" height="30" as="geometry" />
        </mxCell>
        <mxCell id="zZ4p3Ma7blZlyQDrdSuo-31" value="Studio" style="swimlane;fontStyle=0;childLayout=stackLayout;horizontal=1;startSize=30;horizontalStack=0;resizeParent=1;resizeParentMax=0;resizeLast=0;collapsible=1;marginBottom=0;whiteSpace=wrap;html=1;fillColor=#b0e3e6;strokeColor=#0e8088;" parent="1" vertex="1">
          <mxGeometry x="1870" y="1100" width="130" height="150" as="geometry" />
        </mxCell>
        <mxCell id="zZ4p3Ma7blZlyQDrdSuo-32" value="_id: string^" style="text;strokeColor=none;fillColor=none;align=left;verticalAlign=middle;spacingLeft=4;spacingRight=4;overflow=hidden;points=[[0,0.5],[1,0.5]];portConstraint=eastwest;rotatable=0;whiteSpace=wrap;html=1;" parent="zZ4p3Ma7blZlyQDrdSuo-31" vertex="1">
          <mxGeometry y="30" width="130" height="30" as="geometry" />
        </mxCell>
        <mxCell id="zZ4p3Ma7blZlyQDrdSuo-35" value="name:&amp;nbsp;&lt;span style=&quot;text-align: center;&quot;&gt;string&lt;/span&gt;" style="text;align=left;verticalAlign=middle;spacingLeft=4;spacingRight=4;overflow=hidden;points=[[0,0.5],[1,0.5]];portConstraint=eastwest;rotatable=0;whiteSpace=wrap;html=1;" parent="zZ4p3Ma7blZlyQDrdSuo-31" vertex="1">
          <mxGeometry y="60" width="130" height="30" as="geometry" />
        </mxCell>
        <mxCell id="zZ4p3Ma7blZlyQDrdSuo-36" value="description:&amp;nbsp;&lt;span style=&quot;text-align: center;&quot;&gt;language&lt;/span&gt;" style="text;strokeColor=#b85450;fillColor=#f8cecc;align=left;verticalAlign=middle;spacingLeft=4;spacingRight=4;overflow=hidden;points=[[0,0.5],[1,0.5]];portConstraint=eastwest;rotatable=0;whiteSpace=wrap;html=1;" parent="zZ4p3Ma7blZlyQDrdSuo-31" vertex="1">
          <mxGeometry y="90" width="130" height="30" as="geometry" />
        </mxCell>
        <mxCell id="zZ4p3Ma7blZlyQDrdSuo-37" value="&lt;div style=&quot;text-align: center;&quot;&gt;&lt;span style=&quot;background-color: initial;&quot;&gt;logo: string | null&lt;/span&gt;&lt;/div&gt;" style="text;strokeColor=none;fillColor=none;align=left;verticalAlign=middle;spacingLeft=4;spacingRight=4;overflow=hidden;points=[[0,0.5],[1,0.5]];portConstraint=eastwest;rotatable=0;whiteSpace=wrap;html=1;" parent="zZ4p3Ma7blZlyQDrdSuo-31" vertex="1">
          <mxGeometry y="120" width="130" height="30" as="geometry" />
        </mxCell>
        <mxCell id="zZ4p3Ma7blZlyQDrdSuo-41" value="Franchise" style="swimlane;fontStyle=0;childLayout=stackLayout;horizontal=1;startSize=30;horizontalStack=0;resizeParent=1;resizeParentMax=0;resizeLast=0;collapsible=1;marginBottom=0;whiteSpace=wrap;html=1;fillColor=#b0e3e6;strokeColor=#0e8088;" parent="1" vertex="1">
          <mxGeometry x="2590" y="1200" width="130" height="150" as="geometry">
            <mxRectangle x="2610" y="1110" width="90" height="30" as="alternateBounds" />
          </mxGeometry>
        </mxCell>
        <mxCell id="zZ4p3Ma7blZlyQDrdSuo-42" value="_id: string^" style="text;strokeColor=none;fillColor=none;align=left;verticalAlign=middle;spacingLeft=4;spacingRight=4;overflow=hidden;points=[[0,0.5],[1,0.5]];portConstraint=eastwest;rotatable=0;whiteSpace=wrap;html=1;" parent="zZ4p3Ma7blZlyQDrdSuo-41" vertex="1">
          <mxGeometry y="30" width="130" height="30" as="geometry" />
        </mxCell>
        <mxCell id="zZ4p3Ma7blZlyQDrdSuo-43" value="name:&amp;nbsp;&lt;span style=&quot;text-align: center;&quot;&gt;language&lt;/span&gt;" style="text;strokeColor=#b85450;fillColor=#f8cecc;align=left;verticalAlign=middle;spacingLeft=4;spacingRight=4;overflow=hidden;points=[[0,0.5],[1,0.5]];portConstraint=eastwest;rotatable=0;whiteSpace=wrap;html=1;" parent="zZ4p3Ma7blZlyQDrdSuo-41" vertex="1">
          <mxGeometry y="60" width="130" height="30" as="geometry" />
        </mxCell>
        <mxCell id="zZ4p3Ma7blZlyQDrdSuo-44" value="description:&amp;nbsp;&lt;span style=&quot;text-align: center;&quot;&gt;language&lt;/span&gt;" style="text;strokeColor=#b85450;fillColor=#f8cecc;align=left;verticalAlign=middle;spacingLeft=4;spacingRight=4;overflow=hidden;points=[[0,0.5],[1,0.5]];portConstraint=eastwest;rotatable=0;whiteSpace=wrap;html=1;" parent="zZ4p3Ma7blZlyQDrdSuo-41" vertex="1">
          <mxGeometry y="90" width="130" height="30" as="geometry" />
        </mxCell>
        <mxCell id="zZ4p3Ma7blZlyQDrdSuo-45" value="&lt;div style=&quot;text-align: center;&quot;&gt;&lt;span style=&quot;background-color: initial;&quot;&gt;logo: string | null&lt;/span&gt;&lt;/div&gt;" style="text;strokeColor=none;fillColor=none;align=left;verticalAlign=middle;spacingLeft=4;spacingRight=4;overflow=hidden;points=[[0,0.5],[1,0.5]];portConstraint=eastwest;rotatable=0;whiteSpace=wrap;html=1;" parent="zZ4p3Ma7blZlyQDrdSuo-41" vertex="1">
          <mxGeometry y="120" width="130" height="30" as="geometry" />
        </mxCell>
        <mxCell id="zZ4p3Ma7blZlyQDrdSuo-47" value="AnimeComment" style="swimlane;fontStyle=0;childLayout=stackLayout;horizontal=1;startSize=30;horizontalStack=0;resizeParent=1;resizeParentMax=0;resizeLast=0;collapsible=1;marginBottom=0;whiteSpace=wrap;html=1;fillColor=#b0e3e6;strokeColor=#0e8088;" parent="1" vertex="1">
          <mxGeometry x="2068" y="1330" width="172" height="270" as="geometry" />
        </mxCell>
        <mxCell id="zZ4p3Ma7blZlyQDrdSuo-48" value="_id: string^" style="text;strokeColor=none;fillColor=none;align=left;verticalAlign=middle;spacingLeft=4;spacingRight=4;overflow=hidden;points=[[0,0.5],[1,0.5]];portConstraint=eastwest;rotatable=0;whiteSpace=wrap;html=1;" parent="zZ4p3Ma7blZlyQDrdSuo-47" vertex="1">
          <mxGeometry y="30" width="172" height="30" as="geometry" />
        </mxCell>
        <mxCell id="zZ4p3Ma7blZlyQDrdSuo-92" value="&lt;div style=&quot;text-align: center;&quot;&gt;&lt;span style=&quot;background-color: initial;&quot;&gt;base: Anime^&lt;/span&gt;&lt;/div&gt;" style="text;strokeColor=#0e8088;fillColor=#b0e3e6;align=left;verticalAlign=middle;spacingLeft=4;spacingRight=4;overflow=hidden;points=[[0,0.5],[1,0.5]];portConstraint=eastwest;rotatable=0;whiteSpace=wrap;html=1;" parent="zZ4p3Ma7blZlyQDrdSuo-47" vertex="1">
          <mxGeometry y="60" width="172" height="30" as="geometry" />
        </mxCell>
        <mxCell id="zZ4p3Ma7blZlyQDrdSuo-49" value="&lt;div style=&quot;text-align: center;&quot;&gt;&lt;span style=&quot;background-color: initial;&quot;&gt;author: User^&lt;/span&gt;&lt;/div&gt;" style="text;strokeColor=#0e8088;fillColor=#b0e3e6;align=left;verticalAlign=middle;spacingLeft=4;spacingRight=4;overflow=hidden;points=[[0,0.5],[1,0.5]];portConstraint=eastwest;rotatable=0;whiteSpace=wrap;html=1;" parent="zZ4p3Ma7blZlyQDrdSuo-47" vertex="1">
          <mxGeometry y="90" width="172" height="30" as="geometry" />
        </mxCell>
        <mxCell id="zZ4p3Ma7blZlyQDrdSuo-50" value="&lt;div style=&quot;text-align: center;&quot;&gt;&lt;span style=&quot;background-color: initial;&quot;&gt;text: string&lt;/span&gt;&lt;/div&gt;" style="text;strokeColor=none;fillColor=none;align=left;verticalAlign=middle;spacingLeft=4;spacingRight=4;overflow=hidden;points=[[0,0.5],[1,0.5]];portConstraint=eastwest;rotatable=0;whiteSpace=wrap;html=1;" parent="zZ4p3Ma7blZlyQDrdSuo-47" vertex="1">
          <mxGeometry y="120" width="172" height="30" as="geometry" />
        </mxCell>
        <mxCell id="zZ4p3Ma7blZlyQDrdSuo-51" value="&lt;div style=&quot;text-align: center;&quot;&gt;&lt;span style=&quot;background-color: initial;&quot;&gt;createTime: Date&lt;/span&gt;&lt;/div&gt;" style="text;strokeColor=none;fillColor=none;align=left;verticalAlign=middle;spacingLeft=4;spacingRight=4;overflow=hidden;points=[[0,0.5],[1,0.5]];portConstraint=eastwest;rotatable=0;whiteSpace=wrap;html=1;" parent="zZ4p3Ma7blZlyQDrdSuo-47" vertex="1">
          <mxGeometry y="150" width="172" height="30" as="geometry" />
        </mxCell>
        <mxCell id="zZ4p3Ma7blZlyQDrdSuo-52" value="updateTime:&amp;nbsp;&lt;span style=&quot;text-align: center;&quot;&gt;Date&lt;/span&gt;" style="text;strokeColor=none;fillColor=none;align=left;verticalAlign=middle;spacingLeft=4;spacingRight=4;overflow=hidden;points=[[0,0.5],[1,0.5]];portConstraint=eastwest;rotatable=0;whiteSpace=wrap;html=1;" parent="zZ4p3Ma7blZlyQDrdSuo-47" vertex="1">
          <mxGeometry y="180" width="172" height="30" as="geometry" />
        </mxCell>
        <mxCell id="zZ4p3Ma7blZlyQDrdSuo-65" value="violations: string&lt;span style=&quot;text-align: center;&quot;&gt;[]&lt;/span&gt;" style="text;strokeColor=none;fillColor=none;align=left;verticalAlign=middle;spacingLeft=4;spacingRight=4;overflow=hidden;points=[[0,0.5],[1,0.5]];portConstraint=eastwest;rotatable=0;whiteSpace=wrap;html=1;" parent="zZ4p3Ma7blZlyQDrdSuo-47" vertex="1">
          <mxGeometry y="210" width="172" height="30" as="geometry" />
        </mxCell>
        <mxCell id="0XB84AuxrN4kMh931Yzv-26" style="edgeStyle=orthogonalEdgeStyle;rounded=0;orthogonalLoop=1;jettySize=auto;html=1;fillColor=#b0e3e6;strokeColor=#0e8088;" parent="zZ4p3Ma7blZlyQDrdSuo-47" source="zZ4p3Ma7blZlyQDrdSuo-56" target="zZ4p3Ma7blZlyQDrdSuo-47" edge="1">
          <mxGeometry relative="1" as="geometry">
            <Array as="points">
              <mxPoint x="-20" y="255" />
              <mxPoint x="-20" y="200" />
            </Array>
          </mxGeometry>
        </mxCell>
        <mxCell id="zZ4p3Ma7blZlyQDrdSuo-56" value="&lt;div style=&quot;text-align: center;&quot;&gt;&lt;span style=&quot;background-color: initial;&quot;&gt;parent:&amp;nbsp;&lt;/span&gt;AnimeComment&lt;span style=&quot;background-color: initial;&quot;&gt;^ | null&lt;/span&gt;&lt;/div&gt;" style="text;strokeColor=#0e8088;fillColor=#b0e3e6;align=left;verticalAlign=middle;spacingLeft=4;spacingRight=4;overflow=hidden;points=[[0,0.5],[1,0.5]];portConstraint=eastwest;rotatable=0;whiteSpace=wrap;html=1;" parent="zZ4p3Ma7blZlyQDrdSuo-47" vertex="1">
          <mxGeometry y="240" width="172" height="30" as="geometry" />
        </mxCell>
        <mxCell id="zZ4p3Ma7blZlyQDrdSuo-75" value="AnimeCommentLike" style="swimlane;fontStyle=0;childLayout=stackLayout;horizontal=1;startSize=30;horizontalStack=0;resizeParent=1;resizeParentMax=0;resizeLast=0;collapsible=1;marginBottom=0;whiteSpace=wrap;html=1;fillColor=#b0e3e6;strokeColor=#0e8088;" parent="1" vertex="1">
          <mxGeometry x="2290" y="1495" width="140" height="180" as="geometry" />
        </mxCell>
        <mxCell id="zZ4p3Ma7blZlyQDrdSuo-76" value="_id: string^" style="text;strokeColor=none;fillColor=none;align=left;verticalAlign=middle;spacingLeft=4;spacingRight=4;overflow=hidden;points=[[0,0.5],[1,0.5]];portConstraint=eastwest;rotatable=0;whiteSpace=wrap;html=1;" parent="zZ4p3Ma7blZlyQDrdSuo-75" vertex="1">
          <mxGeometry y="30" width="140" height="30" as="geometry" />
        </mxCell>
        <mxCell id="-emMY_bl1AVXrsjhZbCB-1" value="&lt;div style=&quot;text-align: center;&quot;&gt;&lt;span style=&quot;background-color: initial;&quot;&gt;createTime: Date&lt;/span&gt;&lt;/div&gt;" style="text;strokeColor=none;fillColor=none;align=left;verticalAlign=middle;spacingLeft=4;spacingRight=4;overflow=hidden;points=[[0,0.5],[1,0.5]];portConstraint=eastwest;rotatable=0;whiteSpace=wrap;html=1;" parent="zZ4p3Ma7blZlyQDrdSuo-75" vertex="1">
          <mxGeometry y="60" width="140" height="30" as="geometry" />
        </mxCell>
        <mxCell id="6i-AT1Fqz20CTgIHtm6K-6" value="&lt;div style=&quot;text-align: center;&quot;&gt;&lt;span style=&quot;background-color: initial;&quot;&gt;base:&amp;nbsp;&lt;/span&gt;&lt;span style=&quot;background-color: initial;&quot;&gt;AnimeComment^&lt;/span&gt;&lt;/div&gt;" style="text;strokeColor=#0e8088;fillColor=#b0e3e6;align=left;verticalAlign=middle;spacingLeft=4;spacingRight=4;overflow=hidden;points=[[0,0.5],[1,0.5]];portConstraint=eastwest;rotatable=0;whiteSpace=wrap;html=1;" parent="zZ4p3Ma7blZlyQDrdSuo-75" vertex="1">
          <mxGeometry y="90" width="140" height="30" as="geometry" />
        </mxCell>
        <mxCell id="zZ4p3Ma7blZlyQDrdSuo-77" value="&lt;div style=&quot;text-align: center;&quot;&gt;&lt;span style=&quot;background-color: initial;&quot;&gt;author: User^&lt;/span&gt;&lt;/div&gt;" style="text;strokeColor=#0e8088;fillColor=#b0e3e6;align=left;verticalAlign=middle;spacingLeft=4;spacingRight=4;overflow=hidden;points=[[0,0.5],[1,0.5]];portConstraint=eastwest;rotatable=0;whiteSpace=wrap;html=1;" parent="zZ4p3Ma7blZlyQDrdSuo-75" vertex="1">
          <mxGeometry y="120" width="140" height="30" as="geometry" />
        </mxCell>
        <mxCell id="zZ4p3Ma7blZlyQDrdSuo-78" value="&lt;div style=&quot;text-align: center;&quot;&gt;&lt;span style=&quot;background-color: initial;&quot;&gt;isLiked: boolean&lt;/span&gt;&lt;/div&gt;" style="text;strokeColor=none;fillColor=none;align=left;verticalAlign=middle;spacingLeft=4;spacingRight=4;overflow=hidden;points=[[0,0.5],[1,0.5]];portConstraint=eastwest;rotatable=0;whiteSpace=wrap;html=1;" parent="zZ4p3Ma7blZlyQDrdSuo-75" vertex="1">
          <mxGeometry y="150" width="140" height="30" as="geometry" />
        </mxCell>
        <mxCell id="zCz9-yZ-BNrnuggZIsPc-2" value="Anime" style="swimlane;fontStyle=0;childLayout=stackLayout;horizontal=1;startSize=30;horizontalStack=0;resizeParent=1;resizeParentMax=0;resizeLast=0;collapsible=1;marginBottom=0;whiteSpace=wrap;html=1;fillColor=#b0e3e6;strokeColor=#0e8088;" parent="1" vertex="1">
          <mxGeometry x="2290" y="710" width="180" height="570" as="geometry" />
        </mxCell>
        <mxCell id="zCz9-yZ-BNrnuggZIsPc-3" value="_id: string^" style="text;strokeColor=none;fillColor=none;align=left;verticalAlign=middle;spacingLeft=4;spacingRight=4;overflow=hidden;points=[[0,0.5],[1,0.5]];portConstraint=eastwest;rotatable=0;whiteSpace=wrap;html=1;" parent="zCz9-yZ-BNrnuggZIsPc-2" vertex="1">
          <mxGeometry y="30" width="180" height="30" as="geometry" />
        </mxCell>
        <mxCell id="zCz9-yZ-BNrnuggZIsPc-6" value="shikiId: number" style="text;strokeColor=none;fillColor=none;align=left;verticalAlign=middle;spacingLeft=4;spacingRight=4;overflow=hidden;points=[[0,0.5],[1,0.5]];portConstraint=eastwest;rotatable=0;whiteSpace=wrap;html=1;" parent="zCz9-yZ-BNrnuggZIsPc-2" vertex="1">
          <mxGeometry y="60" width="180" height="30" as="geometry" />
        </mxCell>
        <mxCell id="zCz9-yZ-BNrnuggZIsPc-7" value="labels: labels" style="text;strokeColor=#9673a6;fillColor=#e1d5e7;align=left;verticalAlign=middle;spacingLeft=4;spacingRight=4;overflow=hidden;points=[[0,0.5],[1,0.5]];portConstraint=eastwest;rotatable=0;whiteSpace=wrap;html=1;" parent="zCz9-yZ-BNrnuggZIsPc-2" vertex="1">
          <mxGeometry y="90" width="180" height="30" as="geometry" />
        </mxCell>
        <mxCell id="zCz9-yZ-BNrnuggZIsPc-15" value="poster: string | null" style="text;strokeColor=none;fillColor=none;align=left;verticalAlign=middle;spacingLeft=4;spacingRight=4;overflow=hidden;points=[[0,0.5],[1,0.5]];portConstraint=eastwest;rotatable=0;whiteSpace=wrap;html=1;" parent="zCz9-yZ-BNrnuggZIsPc-2" vertex="1">
          <mxGeometry y="120" width="180" height="30" as="geometry" />
        </mxCell>
        <mxCell id="zCz9-yZ-BNrnuggZIsPc-16" value="kind: kind" style="text;strokeColor=#d6b656;fillColor=#fff2cc;align=left;verticalAlign=middle;spacingLeft=4;spacingRight=4;overflow=hidden;points=[[0,0.5],[1,0.5]];portConstraint=eastwest;rotatable=0;whiteSpace=wrap;html=1;" parent="zCz9-yZ-BNrnuggZIsPc-2" vertex="1">
          <mxGeometry y="150" width="180" height="30" as="geometry" />
        </mxCell>
        <mxCell id="zCz9-yZ-BNrnuggZIsPc-36" value="otherPlatforms: otherPlatform[]" style="text;strokeColor=#9673a6;fillColor=#e1d5e7;align=left;verticalAlign=middle;spacingLeft=4;spacingRight=4;overflow=hidden;points=[[0,0.5],[1,0.5]];portConstraint=eastwest;rotatable=0;whiteSpace=wrap;html=1;" parent="zCz9-yZ-BNrnuggZIsPc-2" vertex="1">
          <mxGeometry y="180" width="180" height="30" as="geometry" />
        </mxCell>
        <mxCell id="zCz9-yZ-BNrnuggZIsPc-44" value="status: status" style="text;strokeColor=#d6b656;fillColor=#fff2cc;align=left;verticalAlign=middle;spacingLeft=4;spacingRight=4;overflow=hidden;points=[[0,0.5],[1,0.5]];portConstraint=eastwest;rotatable=0;whiteSpace=wrap;html=1;" parent="zCz9-yZ-BNrnuggZIsPc-2" vertex="1">
          <mxGeometry y="210" width="180" height="30" as="geometry" />
        </mxCell>
        <mxCell id="zCz9-yZ-BNrnuggZIsPc-54" value="episodes: episodes" style="text;strokeColor=#9673a6;fillColor=#e1d5e7;align=left;verticalAlign=middle;spacingLeft=4;spacingRight=4;overflow=hidden;points=[[0,0.5],[1,0.5]];portConstraint=eastwest;rotatable=0;whiteSpace=wrap;html=1;" parent="zCz9-yZ-BNrnuggZIsPc-2" vertex="1">
          <mxGeometry y="240" width="180" height="30" as="geometry" />
        </mxCell>
        <mxCell id="zCz9-yZ-BNrnuggZIsPc-72" value="dates: dates" style="text;strokeColor=#9673a6;fillColor=#e1d5e7;align=left;verticalAlign=middle;spacingLeft=4;spacingRight=4;overflow=hidden;points=[[0,0.5],[1,0.5]];portConstraint=eastwest;rotatable=0;whiteSpace=wrap;html=1;" parent="zCz9-yZ-BNrnuggZIsPc-2" vertex="1">
          <mxGeometry y="270" width="180" height="30" as="geometry" />
        </mxCell>
        <mxCell id="zCz9-yZ-BNrnuggZIsPc-77" value="rating: rating" style="text;strokeColor=#d6b656;fillColor=#fff2cc;align=left;verticalAlign=middle;spacingLeft=4;spacingRight=4;overflow=hidden;points=[[0,0.5],[1,0.5]];portConstraint=eastwest;rotatable=0;whiteSpace=wrap;html=1;" parent="zCz9-yZ-BNrnuggZIsPc-2" vertex="1">
          <mxGeometry y="300" width="180" height="30" as="geometry" />
        </mxCell>
        <mxCell id="zCz9-yZ-BNrnuggZIsPc-86" value="description: language" style="text;strokeColor=#b85450;fillColor=#f8cecc;align=left;verticalAlign=middle;spacingLeft=4;spacingRight=4;overflow=hidden;points=[[0,0.5],[1,0.5]];portConstraint=eastwest;rotatable=0;whiteSpace=wrap;html=1;" parent="zCz9-yZ-BNrnuggZIsPc-2" vertex="1">
          <mxGeometry y="330" width="180" height="30" as="geometry" />
        </mxCell>
        <mxCell id="jFXlIMssa5CcWGej5E4a-13" value="related: relatedAnime[]" style="text;strokeColor=#9673a6;fillColor=#e1d5e7;align=left;verticalAlign=middle;spacingLeft=4;spacingRight=4;overflow=hidden;points=[[0,0.5],[1,0.5]];portConstraint=eastwest;rotatable=0;whiteSpace=wrap;html=1;" parent="zCz9-yZ-BNrnuggZIsPc-2" vertex="1">
          <mxGeometry y="360" width="180" height="30" as="geometry" />
        </mxCell>
        <mxCell id="zCz9-yZ-BNrnuggZIsPc-87" value="screenshots: string[]" style="text;strokeColor=none;fillColor=none;align=left;verticalAlign=middle;spacingLeft=4;spacingRight=4;overflow=hidden;points=[[0,0.5],[1,0.5]];portConstraint=eastwest;rotatable=0;whiteSpace=wrap;html=1;" parent="zCz9-yZ-BNrnuggZIsPc-2" vertex="1">
          <mxGeometry y="390" width="180" height="30" as="geometry" />
        </mxCell>
        <mxCell id="zCz9-yZ-BNrnuggZIsPc-88" value="videos: video[]" style="text;strokeColor=#9673a6;fillColor=#e1d5e7;align=left;verticalAlign=middle;spacingLeft=4;spacingRight=4;overflow=hidden;points=[[0,0.5],[1,0.5]];portConstraint=eastwest;rotatable=0;whiteSpace=wrap;html=1;" parent="zCz9-yZ-BNrnuggZIsPc-2" vertex="1">
          <mxGeometry y="420" width="180" height="30" as="geometry" />
        </mxCell>
        <mxCell id="zCz9-yZ-BNrnuggZIsPc-89" value="genres: Genre^[]" style="text;strokeColor=#0e8088;fillColor=#b0e3e6;align=left;verticalAlign=middle;spacingLeft=4;spacingRight=4;overflow=hidden;points=[[0,0.5],[1,0.5]];portConstraint=eastwest;rotatable=0;whiteSpace=wrap;html=1;" parent="zCz9-yZ-BNrnuggZIsPc-2" vertex="1">
          <mxGeometry y="450" width="180" height="30" as="geometry" />
        </mxCell>
        <mxCell id="zCz9-yZ-BNrnuggZIsPc-92" value="studios: Studio^[]" style="text;strokeColor=#0e8088;fillColor=#b0e3e6;align=left;verticalAlign=middle;spacingLeft=4;spacingRight=4;overflow=hidden;points=[[0,0.5],[1,0.5]];portConstraint=eastwest;rotatable=0;whiteSpace=wrap;html=1;" parent="zCz9-yZ-BNrnuggZIsPc-2" vertex="1">
          <mxGeometry y="480" width="180" height="30" as="geometry" />
        </mxCell>
        <mxCell id="zCz9-yZ-BNrnuggZIsPc-94" value="franchise: Franchise^ | null" style="text;strokeColor=#0e8088;fillColor=#b0e3e6;align=left;verticalAlign=middle;spacingLeft=4;spacingRight=4;overflow=hidden;points=[[0,0.5],[1,0.5]];portConstraint=eastwest;rotatable=0;whiteSpace=wrap;html=1;" parent="zCz9-yZ-BNrnuggZIsPc-2" vertex="1">
          <mxGeometry y="510" width="180" height="30" as="geometry" />
        </mxCell>
        <mxCell id="zCz9-yZ-BNrnuggZIsPc-96" value="updateDate: Date" style="text;strokeColor=none;fillColor=none;align=left;verticalAlign=middle;spacingLeft=4;spacingRight=4;overflow=hidden;points=[[0,0.5],[1,0.5]];portConstraint=eastwest;rotatable=0;whiteSpace=wrap;html=1;" parent="zCz9-yZ-BNrnuggZIsPc-2" vertex="1">
          <mxGeometry y="540" width="180" height="30" as="geometry" />
        </mxCell>
        <mxCell id="zCz9-yZ-BNrnuggZIsPc-9" value="&lt;span style=&quot;text-align: left;&quot;&gt;labels&lt;/span&gt;" style="swimlane;fontStyle=0;childLayout=stackLayout;horizontal=1;startSize=30;horizontalStack=0;resizeParent=1;resizeParentMax=0;resizeLast=0;collapsible=1;marginBottom=0;whiteSpace=wrap;html=1;fillColor=#e1d5e7;strokeColor=#9673a6;" parent="1" vertex="1">
          <mxGeometry x="2520" y="650" width="110" height="120" as="geometry" />
        </mxCell>
        <mxCell id="zCz9-yZ-BNrnuggZIsPc-11" value="en: string | null" style="text;strokeColor=none;fillColor=none;align=left;verticalAlign=middle;spacingLeft=4;spacingRight=4;overflow=hidden;points=[[0,0.5],[1,0.5]];portConstraint=eastwest;rotatable=0;whiteSpace=wrap;html=1;" parent="zCz9-yZ-BNrnuggZIsPc-9" vertex="1">
          <mxGeometry y="30" width="110" height="30" as="geometry" />
        </mxCell>
        <mxCell id="zCz9-yZ-BNrnuggZIsPc-12" value="ru: string&amp;nbsp;| null" style="text;strokeColor=none;fillColor=none;align=left;verticalAlign=middle;spacingLeft=4;spacingRight=4;overflow=hidden;points=[[0,0.5],[1,0.5]];portConstraint=eastwest;rotatable=0;whiteSpace=wrap;html=1;" parent="zCz9-yZ-BNrnuggZIsPc-9" vertex="1">
          <mxGeometry y="60" width="110" height="30" as="geometry" />
        </mxCell>
        <mxCell id="zCz9-yZ-BNrnuggZIsPc-13" value="synonyms: string[]" style="text;strokeColor=none;fillColor=none;align=left;verticalAlign=middle;spacingLeft=4;spacingRight=4;overflow=hidden;points=[[0,0.5],[1,0.5]];portConstraint=eastwest;rotatable=0;whiteSpace=wrap;html=1;" parent="zCz9-yZ-BNrnuggZIsPc-9" vertex="1">
          <mxGeometry y="90" width="110" height="30" as="geometry" />
        </mxCell>
        <mxCell id="zCz9-yZ-BNrnuggZIsPc-17" value="&lt;span style=&quot;text-align: left;&quot;&gt;kind&lt;/span&gt;" style="swimlane;fontStyle=0;childLayout=stackLayout;horizontal=1;startSize=30;horizontalStack=0;resizeParent=1;resizeParentMax=0;resizeLast=0;collapsible=1;marginBottom=0;whiteSpace=wrap;html=1;fillColor=#fff2cc;strokeColor=#d6b656;" parent="1" vertex="1">
          <mxGeometry x="1870" y="710" width="65" height="270" as="geometry" />
        </mxCell>
        <mxCell id="zCz9-yZ-BNrnuggZIsPc-18" value="tv" style="text;strokeColor=none;fillColor=none;align=left;verticalAlign=middle;spacingLeft=4;spacingRight=4;overflow=hidden;points=[[0,0.5],[1,0.5]];portConstraint=eastwest;rotatable=0;whiteSpace=wrap;html=1;" parent="zCz9-yZ-BNrnuggZIsPc-17" vertex="1">
          <mxGeometry y="30" width="65" height="30" as="geometry" />
        </mxCell>
        <mxCell id="zCz9-yZ-BNrnuggZIsPc-19" value="movie" style="text;strokeColor=none;fillColor=none;align=left;verticalAlign=middle;spacingLeft=4;spacingRight=4;overflow=hidden;points=[[0,0.5],[1,0.5]];portConstraint=eastwest;rotatable=0;whiteSpace=wrap;html=1;" parent="zCz9-yZ-BNrnuggZIsPc-17" vertex="1">
          <mxGeometry y="60" width="65" height="30" as="geometry" />
        </mxCell>
        <mxCell id="zCz9-yZ-BNrnuggZIsPc-20" value="ova" style="text;strokeColor=none;fillColor=none;align=left;verticalAlign=middle;spacingLeft=4;spacingRight=4;overflow=hidden;points=[[0,0.5],[1,0.5]];portConstraint=eastwest;rotatable=0;whiteSpace=wrap;html=1;" parent="zCz9-yZ-BNrnuggZIsPc-17" vertex="1">
          <mxGeometry y="90" width="65" height="30" as="geometry" />
        </mxCell>
        <mxCell id="zCz9-yZ-BNrnuggZIsPc-21" value="ona" style="text;strokeColor=none;fillColor=none;align=left;verticalAlign=middle;spacingLeft=4;spacingRight=4;overflow=hidden;points=[[0,0.5],[1,0.5]];portConstraint=eastwest;rotatable=0;whiteSpace=wrap;html=1;" parent="zCz9-yZ-BNrnuggZIsPc-17" vertex="1">
          <mxGeometry y="120" width="65" height="30" as="geometry" />
        </mxCell>
        <mxCell id="zCz9-yZ-BNrnuggZIsPc-22" value="special" style="text;strokeColor=none;fillColor=none;align=left;verticalAlign=middle;spacingLeft=4;spacingRight=4;overflow=hidden;points=[[0,0.5],[1,0.5]];portConstraint=eastwest;rotatable=0;whiteSpace=wrap;html=1;" parent="zCz9-yZ-BNrnuggZIsPc-17" vertex="1">
          <mxGeometry y="150" width="65" height="30" as="geometry" />
        </mxCell>
        <mxCell id="zCz9-yZ-BNrnuggZIsPc-23" value="music" style="text;strokeColor=none;fillColor=none;align=left;verticalAlign=middle;spacingLeft=4;spacingRight=4;overflow=hidden;points=[[0,0.5],[1,0.5]];portConstraint=eastwest;rotatable=0;whiteSpace=wrap;html=1;" parent="zCz9-yZ-BNrnuggZIsPc-17" vertex="1">
          <mxGeometry y="180" width="65" height="30" as="geometry" />
        </mxCell>
        <mxCell id="jFXlIMssa5CcWGej5E4a-2" value="tv_special" style="text;strokeColor=none;fillColor=none;align=left;verticalAlign=middle;spacingLeft=4;spacingRight=4;overflow=hidden;points=[[0,0.5],[1,0.5]];portConstraint=eastwest;rotatable=0;whiteSpace=wrap;html=1;" parent="zCz9-yZ-BNrnuggZIsPc-17" vertex="1">
          <mxGeometry y="210" width="65" height="30" as="geometry" />
        </mxCell>
        <mxCell id="zCz9-yZ-BNrnuggZIsPc-24" value="none" style="text;strokeColor=none;fillColor=none;align=left;verticalAlign=middle;spacingLeft=4;spacingRight=4;overflow=hidden;points=[[0,0.5],[1,0.5]];portConstraint=eastwest;rotatable=0;whiteSpace=wrap;html=1;" parent="zCz9-yZ-BNrnuggZIsPc-17" vertex="1">
          <mxGeometry y="240" width="65" height="30" as="geometry" />
        </mxCell>
        <mxCell id="zCz9-yZ-BNrnuggZIsPc-31" value="&lt;span style=&quot;text-align: left;&quot;&gt;AnimeEstimate&lt;/span&gt;" style="swimlane;fontStyle=0;childLayout=stackLayout;horizontal=1;startSize=30;horizontalStack=0;resizeParent=1;resizeParentMax=0;resizeLast=0;collapsible=1;marginBottom=0;whiteSpace=wrap;html=1;fillColor=#b0e3e6;strokeColor=#0e8088;" parent="1" vertex="1">
          <mxGeometry x="3140" y="285" width="110" height="150" as="geometry" />
        </mxCell>
        <mxCell id="zCz9-yZ-BNrnuggZIsPc-32" value="&lt;span style=&quot;text-align: center;&quot;&gt;author: User^&lt;/span&gt;" style="text;strokeColor=#0e8088;fillColor=#b0e3e6;align=left;verticalAlign=middle;spacingLeft=4;spacingRight=4;overflow=hidden;points=[[0,0.5],[1,0.5]];portConstraint=eastwest;rotatable=0;whiteSpace=wrap;html=1;" parent="zCz9-yZ-BNrnuggZIsPc-31" vertex="1">
          <mxGeometry y="30" width="110" height="30" as="geometry" />
        </mxCell>
        <mxCell id="-emMY_bl1AVXrsjhZbCB-2" value="&lt;div style=&quot;text-align: center;&quot;&gt;&lt;span style=&quot;background-color: initial;&quot;&gt;createTime: Date&lt;/span&gt;&lt;/div&gt;" style="text;strokeColor=none;fillColor=none;align=left;verticalAlign=middle;spacingLeft=4;spacingRight=4;overflow=hidden;points=[[0,0.5],[1,0.5]];portConstraint=eastwest;rotatable=0;whiteSpace=wrap;html=1;" parent="zCz9-yZ-BNrnuggZIsPc-31" vertex="1">
          <mxGeometry y="60" width="110" height="30" as="geometry" />
        </mxCell>
        <mxCell id="6i-AT1Fqz20CTgIHtm6K-8" value="&lt;div style=&quot;text-align: center;&quot;&gt;&lt;span style=&quot;background-color: initial;&quot;&gt;base: Anime^&lt;/span&gt;&lt;/div&gt;" style="text;strokeColor=#0e8088;fillColor=#b0e3e6;align=left;verticalAlign=middle;spacingLeft=4;spacingRight=4;overflow=hidden;points=[[0,0.5],[1,0.5]];portConstraint=eastwest;rotatable=0;whiteSpace=wrap;html=1;" parent="zCz9-yZ-BNrnuggZIsPc-31" vertex="1">
          <mxGeometry y="90" width="110" height="30" as="geometry" />
        </mxCell>
        <mxCell id="zCz9-yZ-BNrnuggZIsPc-33" value="score: number" style="text;strokeColor=none;fillColor=none;align=left;verticalAlign=middle;spacingLeft=4;spacingRight=4;overflow=hidden;points=[[0,0.5],[1,0.5]];portConstraint=eastwest;rotatable=0;whiteSpace=wrap;html=1;" parent="zCz9-yZ-BNrnuggZIsPc-31" vertex="1">
          <mxGeometry y="120" width="110" height="30" as="geometry" />
        </mxCell>
        <mxCell id="zCz9-yZ-BNrnuggZIsPc-37" value="&lt;span style=&quot;text-align: left;&quot;&gt;otherPlatform&lt;/span&gt;" style="swimlane;fontStyle=0;childLayout=stackLayout;horizontal=1;startSize=30;horizontalStack=0;resizeParent=1;resizeParentMax=0;resizeLast=0;collapsible=1;marginBottom=0;whiteSpace=wrap;html=1;fillColor=#e1d5e7;strokeColor=#9673a6;" parent="1" vertex="1">
          <mxGeometry x="2690" y="650" width="120" height="90" as="geometry" />
        </mxCell>
        <mxCell id="zCz9-yZ-BNrnuggZIsPc-39" value="url: string" style="text;strokeColor=none;fillColor=none;align=left;verticalAlign=middle;spacingLeft=4;spacingRight=4;overflow=hidden;points=[[0,0.5],[1,0.5]];portConstraint=eastwest;rotatable=0;whiteSpace=wrap;html=1;" parent="zCz9-yZ-BNrnuggZIsPc-37" vertex="1">
          <mxGeometry y="30" width="120" height="30" as="geometry" />
        </mxCell>
        <mxCell id="zCz9-yZ-BNrnuggZIsPc-40" value="platform: Platform^" style="text;strokeColor=#0e8088;fillColor=#b0e3e6;align=left;verticalAlign=middle;spacingLeft=4;spacingRight=4;overflow=hidden;points=[[0,0.5],[1,0.5]];portConstraint=eastwest;rotatable=0;whiteSpace=wrap;html=1;" parent="zCz9-yZ-BNrnuggZIsPc-37" vertex="1">
          <mxGeometry y="60" width="120" height="30" as="geometry" />
        </mxCell>
        <mxCell id="zCz9-yZ-BNrnuggZIsPc-45" value="&lt;span style=&quot;text-align: left;&quot;&gt;status&lt;/span&gt;" style="swimlane;fontStyle=0;childLayout=stackLayout;horizontal=1;startSize=30;horizontalStack=0;resizeParent=1;resizeParentMax=0;resizeLast=0;collapsible=1;marginBottom=0;whiteSpace=wrap;html=1;fillColor=#fff2cc;strokeColor=#d6b656;" parent="1" vertex="1">
          <mxGeometry x="2115" y="710" width="60" height="120" as="geometry" />
        </mxCell>
        <mxCell id="zCz9-yZ-BNrnuggZIsPc-46" value="anons" style="text;strokeColor=none;fillColor=none;align=left;verticalAlign=middle;spacingLeft=4;spacingRight=4;overflow=hidden;points=[[0,0.5],[1,0.5]];portConstraint=eastwest;rotatable=0;whiteSpace=wrap;html=1;" parent="zCz9-yZ-BNrnuggZIsPc-45" vertex="1">
          <mxGeometry y="30" width="60" height="30" as="geometry" />
        </mxCell>
        <mxCell id="zCz9-yZ-BNrnuggZIsPc-47" value="ongoing" style="text;strokeColor=none;fillColor=none;align=left;verticalAlign=middle;spacingLeft=4;spacingRight=4;overflow=hidden;points=[[0,0.5],[1,0.5]];portConstraint=eastwest;rotatable=0;whiteSpace=wrap;html=1;" parent="zCz9-yZ-BNrnuggZIsPc-45" vertex="1">
          <mxGeometry y="60" width="60" height="30" as="geometry" />
        </mxCell>
        <mxCell id="zCz9-yZ-BNrnuggZIsPc-48" value="released" style="text;strokeColor=none;fillColor=none;align=left;verticalAlign=middle;spacingLeft=4;spacingRight=4;overflow=hidden;points=[[0,0.5],[1,0.5]];portConstraint=eastwest;rotatable=0;whiteSpace=wrap;html=1;" parent="zCz9-yZ-BNrnuggZIsPc-45" vertex="1">
          <mxGeometry y="90" width="60" height="30" as="geometry" />
        </mxCell>
        <mxCell id="zCz9-yZ-BNrnuggZIsPc-55" value="&lt;span style=&quot;text-align: left;&quot;&gt;episodes&lt;/span&gt;" style="swimlane;fontStyle=0;childLayout=stackLayout;horizontal=1;startSize=30;horizontalStack=0;resizeParent=1;resizeParentMax=0;resizeLast=0;collapsible=1;marginBottom=0;whiteSpace=wrap;html=1;fillColor=#e1d5e7;strokeColor=#9673a6;" parent="1" vertex="1">
          <mxGeometry x="2830" y="790" width="180" height="90" as="geometry">
            <mxRectangle x="-200" y="1930" width="90" height="30" as="alternateBounds" />
          </mxGeometry>
        </mxCell>
        <mxCell id="zCz9-yZ-BNrnuggZIsPc-56" value="count: number | null" style="text;strokeColor=none;fillColor=none;align=left;verticalAlign=middle;spacingLeft=4;spacingRight=4;overflow=hidden;points=[[0,0.5],[1,0.5]];portConstraint=eastwest;rotatable=0;whiteSpace=wrap;html=1;" parent="zCz9-yZ-BNrnuggZIsPc-55" vertex="1">
          <mxGeometry y="30" width="180" height="30" as="geometry" />
        </mxCell>
        <mxCell id="zCz9-yZ-BNrnuggZIsPc-60" value="singleEpisodes: singleEpisode[]" style="text;strokeColor=#9673a6;fillColor=#e1d5e7;align=left;verticalAlign=middle;spacingLeft=4;spacingRight=4;overflow=hidden;points=[[0,0.5],[1,0.5]];portConstraint=eastwest;rotatable=0;whiteSpace=wrap;html=1;" parent="zCz9-yZ-BNrnuggZIsPc-55" vertex="1">
          <mxGeometry y="60" width="180" height="30" as="geometry" />
        </mxCell>
        <mxCell id="zCz9-yZ-BNrnuggZIsPc-61" value="&lt;span style=&quot;text-align: left;&quot;&gt;singleEpisode&lt;/span&gt;" style="swimlane;fontStyle=0;childLayout=stackLayout;horizontal=1;startSize=30;horizontalStack=0;resizeParent=1;resizeParentMax=0;resizeLast=0;collapsible=1;marginBottom=0;whiteSpace=wrap;html=1;fillColor=#e1d5e7;strokeColor=#9673a6;" parent="1" vertex="1">
          <mxGeometry x="3070" y="805" width="110" height="120" as="geometry">
            <mxRectangle x="-427.5" y="1930" width="120" height="30" as="alternateBounds" />
          </mxGeometry>
        </mxCell>
        <mxCell id="zCz9-yZ-BNrnuggZIsPc-62" value="name: string | null" style="text;align=left;verticalAlign=middle;spacingLeft=4;spacingRight=4;overflow=hidden;points=[[0,0.5],[1,0.5]];portConstraint=eastwest;rotatable=0;whiteSpace=wrap;html=1;" parent="zCz9-yZ-BNrnuggZIsPc-61" vertex="1">
          <mxGeometry y="30" width="110" height="30" as="geometry" />
        </mxCell>
        <mxCell id="zCz9-yZ-BNrnuggZIsPc-63" value="airedAt: Date | null" style="text;strokeColor=none;fillColor=none;align=left;verticalAlign=middle;spacingLeft=4;spacingRight=4;overflow=hidden;points=[[0,0.5],[1,0.5]];portConstraint=eastwest;rotatable=0;whiteSpace=wrap;html=1;" parent="zCz9-yZ-BNrnuggZIsPc-61" vertex="1">
          <mxGeometry y="60" width="110" height="30" as="geometry" />
        </mxCell>
        <mxCell id="zCz9-yZ-BNrnuggZIsPc-64" value="duration: number" style="text;strokeColor=none;fillColor=none;align=left;verticalAlign=middle;spacingLeft=4;spacingRight=4;overflow=hidden;points=[[0,0.5],[1,0.5]];portConstraint=eastwest;rotatable=0;whiteSpace=wrap;html=1;" parent="zCz9-yZ-BNrnuggZIsPc-61" vertex="1">
          <mxGeometry y="90" width="110" height="30" as="geometry" />
        </mxCell>
        <mxCell id="zCz9-yZ-BNrnuggZIsPc-73" value="&lt;span style=&quot;text-align: left;&quot;&gt;dates&lt;/span&gt;" style="swimlane;fontStyle=0;childLayout=stackLayout;horizontal=1;startSize=30;horizontalStack=0;resizeParent=1;resizeParentMax=0;resizeLast=0;collapsible=1;marginBottom=0;whiteSpace=wrap;html=1;fillColor=#e1d5e7;strokeColor=#9673a6;" parent="1" vertex="1">
          <mxGeometry x="3160" y="950" width="140" height="90" as="geometry" />
        </mxCell>
        <mxCell id="zCz9-yZ-BNrnuggZIsPc-74" value="airedOn: Date | null" style="text;strokeColor=none;fillColor=none;align=left;verticalAlign=middle;spacingLeft=4;spacingRight=4;overflow=hidden;points=[[0,0.5],[1,0.5]];portConstraint=eastwest;rotatable=0;whiteSpace=wrap;html=1;" parent="zCz9-yZ-BNrnuggZIsPc-73" vertex="1">
          <mxGeometry y="30" width="140" height="30" as="geometry" />
        </mxCell>
        <mxCell id="zCz9-yZ-BNrnuggZIsPc-75" value="releasedOn: Date | null" style="text;strokeColor=none;fillColor=none;align=left;verticalAlign=middle;spacingLeft=4;spacingRight=4;overflow=hidden;points=[[0,0.5],[1,0.5]];portConstraint=eastwest;rotatable=0;whiteSpace=wrap;html=1;" parent="zCz9-yZ-BNrnuggZIsPc-73" vertex="1">
          <mxGeometry y="60" width="140" height="30" as="geometry" />
        </mxCell>
        <mxCell id="zCz9-yZ-BNrnuggZIsPc-78" value="&lt;span style=&quot;text-align: left;&quot;&gt;rating&lt;/span&gt;" style="swimlane;fontStyle=0;childLayout=stackLayout;horizontal=1;startSize=30;horizontalStack=0;resizeParent=1;resizeParentMax=0;resizeLast=0;collapsible=1;marginBottom=0;whiteSpace=wrap;html=1;fillColor=#fff2cc;strokeColor=#d6b656;" parent="1" vertex="1">
          <mxGeometry x="2045" y="710" width="45" height="240" as="geometry" />
        </mxCell>
        <mxCell id="zCz9-yZ-BNrnuggZIsPc-79" value="g" style="text;strokeColor=none;fillColor=none;align=left;verticalAlign=middle;spacingLeft=4;spacingRight=4;overflow=hidden;points=[[0,0.5],[1,0.5]];portConstraint=eastwest;rotatable=0;whiteSpace=wrap;html=1;" parent="zCz9-yZ-BNrnuggZIsPc-78" vertex="1">
          <mxGeometry y="30" width="45" height="30" as="geometry" />
        </mxCell>
        <mxCell id="zCz9-yZ-BNrnuggZIsPc-80" value="pg" style="text;strokeColor=none;fillColor=none;align=left;verticalAlign=middle;spacingLeft=4;spacingRight=4;overflow=hidden;points=[[0,0.5],[1,0.5]];portConstraint=eastwest;rotatable=0;whiteSpace=wrap;html=1;" parent="zCz9-yZ-BNrnuggZIsPc-78" vertex="1">
          <mxGeometry y="60" width="45" height="30" as="geometry" />
        </mxCell>
        <mxCell id="zCz9-yZ-BNrnuggZIsPc-81" value="pg_13" style="text;strokeColor=none;fillColor=none;align=left;verticalAlign=middle;spacingLeft=4;spacingRight=4;overflow=hidden;points=[[0,0.5],[1,0.5]];portConstraint=eastwest;rotatable=0;whiteSpace=wrap;html=1;" parent="zCz9-yZ-BNrnuggZIsPc-78" vertex="1">
          <mxGeometry y="90" width="45" height="30" as="geometry" />
        </mxCell>
        <mxCell id="zCz9-yZ-BNrnuggZIsPc-82" value="r" style="text;strokeColor=none;fillColor=none;align=left;verticalAlign=middle;spacingLeft=4;spacingRight=4;overflow=hidden;points=[[0,0.5],[1,0.5]];portConstraint=eastwest;rotatable=0;whiteSpace=wrap;html=1;" parent="zCz9-yZ-BNrnuggZIsPc-78" vertex="1">
          <mxGeometry y="120" width="45" height="30" as="geometry" />
        </mxCell>
        <mxCell id="zCz9-yZ-BNrnuggZIsPc-83" value="r_plus" style="text;strokeColor=none;fillColor=none;align=left;verticalAlign=middle;spacingLeft=4;spacingRight=4;overflow=hidden;points=[[0,0.5],[1,0.5]];portConstraint=eastwest;rotatable=0;whiteSpace=wrap;html=1;" parent="zCz9-yZ-BNrnuggZIsPc-78" vertex="1">
          <mxGeometry y="150" width="45" height="30" as="geometry" />
        </mxCell>
        <mxCell id="zCz9-yZ-BNrnuggZIsPc-85" value="rx" style="text;strokeColor=none;fillColor=none;align=left;verticalAlign=middle;spacingLeft=4;spacingRight=4;overflow=hidden;points=[[0,0.5],[1,0.5]];portConstraint=eastwest;rotatable=0;whiteSpace=wrap;html=1;" parent="zCz9-yZ-BNrnuggZIsPc-78" vertex="1">
          <mxGeometry y="180" width="45" height="30" as="geometry" />
        </mxCell>
        <mxCell id="zCz9-yZ-BNrnuggZIsPc-84" value="none" style="text;strokeColor=none;fillColor=none;align=left;verticalAlign=middle;spacingLeft=4;spacingRight=4;overflow=hidden;points=[[0,0.5],[1,0.5]];portConstraint=eastwest;rotatable=0;whiteSpace=wrap;html=1;" parent="zCz9-yZ-BNrnuggZIsPc-78" vertex="1">
          <mxGeometry y="210" width="45" height="30" as="geometry" />
        </mxCell>
        <mxCell id="zCz9-yZ-BNrnuggZIsPc-99" value="AnimeList" style="swimlane;fontStyle=0;childLayout=stackLayout;horizontal=1;startSize=30;horizontalStack=0;resizeParent=1;resizeParentMax=0;resizeLast=0;collapsible=1;marginBottom=0;whiteSpace=wrap;html=1;fillColor=#b0e3e6;strokeColor=#0e8088;" parent="1" vertex="1">
          <mxGeometry x="2740" y="1240" width="110" height="180" as="geometry" />
        </mxCell>
        <mxCell id="zCz9-yZ-BNrnuggZIsPc-100" value="_id: string^" style="text;strokeColor=none;fillColor=none;align=left;verticalAlign=middle;spacingLeft=4;spacingRight=4;overflow=hidden;points=[[0,0.5],[1,0.5]];portConstraint=eastwest;rotatable=0;whiteSpace=wrap;html=1;" parent="zCz9-yZ-BNrnuggZIsPc-99" vertex="1">
          <mxGeometry y="30" width="110" height="30" as="geometry" />
        </mxCell>
        <mxCell id="zCz9-yZ-BNrnuggZIsPc-101" value="&lt;div style=&quot;text-align: center;&quot;&gt;&lt;span style=&quot;background-color: initial;&quot;&gt;author: User^&lt;/span&gt;&lt;/div&gt;" style="text;strokeColor=#0e8088;fillColor=#b0e3e6;align=left;verticalAlign=middle;spacingLeft=4;spacingRight=4;overflow=hidden;points=[[0,0.5],[1,0.5]];portConstraint=eastwest;rotatable=0;whiteSpace=wrap;html=1;" parent="zCz9-yZ-BNrnuggZIsPc-99" vertex="1">
          <mxGeometry y="60" width="110" height="30" as="geometry" />
        </mxCell>
        <mxCell id="-emMY_bl1AVXrsjhZbCB-4" value="&lt;span style=&quot;text-align: center;&quot;&gt;createTime&lt;/span&gt;:&amp;nbsp;&lt;span style=&quot;text-align: center;&quot;&gt;Date&lt;/span&gt;" style="text;strokeColor=none;fillColor=none;align=left;verticalAlign=middle;spacingLeft=4;spacingRight=4;overflow=hidden;points=[[0,0.5],[1,0.5]];portConstraint=eastwest;rotatable=0;whiteSpace=wrap;html=1;" parent="zCz9-yZ-BNrnuggZIsPc-99" vertex="1">
          <mxGeometry y="90" width="110" height="30" as="geometry" />
        </mxCell>
        <mxCell id="6i-AT1Fqz20CTgIHtm6K-2" value="&lt;div style=&quot;text-align: center;&quot;&gt;&lt;span style=&quot;background-color: initial;&quot;&gt;base: Anime^&lt;/span&gt;&lt;/div&gt;" style="text;strokeColor=#0e8088;fillColor=#b0e3e6;align=left;verticalAlign=middle;spacingLeft=4;spacingRight=4;overflow=hidden;points=[[0,0.5],[1,0.5]];portConstraint=eastwest;rotatable=0;whiteSpace=wrap;html=1;" parent="zCz9-yZ-BNrnuggZIsPc-99" vertex="1">
          <mxGeometry y="120" width="110" height="30" as="geometry" />
        </mxCell>
        <mxCell id="zCz9-yZ-BNrnuggZIsPc-102" value="&lt;div style=&quot;text-align: center;&quot;&gt;&lt;span style=&quot;background-color: initial;&quot;&gt;status: listStatus&lt;/span&gt;&lt;/div&gt;" style="text;strokeColor=#d6b656;fillColor=#fff2cc;align=left;verticalAlign=middle;spacingLeft=4;spacingRight=4;overflow=hidden;points=[[0,0.5],[1,0.5]];portConstraint=eastwest;rotatable=0;whiteSpace=wrap;html=1;" parent="zCz9-yZ-BNrnuggZIsPc-99" vertex="1">
          <mxGeometry y="150" width="110" height="30" as="geometry" />
        </mxCell>
        <mxCell id="zCz9-yZ-BNrnuggZIsPc-104" value="&lt;div style=&quot;text-align: left;&quot;&gt;&lt;span style=&quot;background-color: initial;&quot;&gt;listStatus&lt;/span&gt;&lt;/div&gt;" style="swimlane;fontStyle=0;childLayout=stackLayout;horizontal=1;startSize=30;horizontalStack=0;resizeParent=1;resizeParentMax=0;resizeLast=0;collapsible=1;marginBottom=0;whiteSpace=wrap;html=1;fillColor=#fff2cc;strokeColor=#d6b656;" parent="1" vertex="1">
          <mxGeometry x="1955" y="710" width="70" height="150" as="geometry" />
        </mxCell>
        <mxCell id="zCz9-yZ-BNrnuggZIsPc-105" value="added" style="text;strokeColor=none;fillColor=none;align=left;verticalAlign=middle;spacingLeft=4;spacingRight=4;overflow=hidden;points=[[0,0.5],[1,0.5]];portConstraint=eastwest;rotatable=0;whiteSpace=wrap;html=1;" parent="zCz9-yZ-BNrnuggZIsPc-104" vertex="1">
          <mxGeometry y="30" width="70" height="30" as="geometry" />
        </mxCell>
        <mxCell id="zCz9-yZ-BNrnuggZIsPc-106" value="watching" style="text;strokeColor=none;fillColor=none;align=left;verticalAlign=middle;spacingLeft=4;spacingRight=4;overflow=hidden;points=[[0,0.5],[1,0.5]];portConstraint=eastwest;rotatable=0;whiteSpace=wrap;html=1;" parent="zCz9-yZ-BNrnuggZIsPc-104" vertex="1">
          <mxGeometry y="60" width="70" height="30" as="geometry" />
        </mxCell>
        <mxCell id="zCz9-yZ-BNrnuggZIsPc-107" value="completed" style="text;strokeColor=none;fillColor=none;align=left;verticalAlign=middle;spacingLeft=4;spacingRight=4;overflow=hidden;points=[[0,0.5],[1,0.5]];portConstraint=eastwest;rotatable=0;whiteSpace=wrap;html=1;" parent="zCz9-yZ-BNrnuggZIsPc-104" vertex="1">
          <mxGeometry y="90" width="70" height="30" as="geometry" />
        </mxCell>
        <mxCell id="zCz9-yZ-BNrnuggZIsPc-108" value="dropped" style="text;strokeColor=none;fillColor=none;align=left;verticalAlign=middle;spacingLeft=4;spacingRight=4;overflow=hidden;points=[[0,0.5],[1,0.5]];portConstraint=eastwest;rotatable=0;whiteSpace=wrap;html=1;" parent="zCz9-yZ-BNrnuggZIsPc-104" vertex="1">
          <mxGeometry y="120" width="70" height="30" as="geometry" />
        </mxCell>
        <mxCell id="zCz9-yZ-BNrnuggZIsPc-124" value="User" style="swimlane;fontStyle=0;childLayout=stackLayout;horizontal=1;startSize=30;horizontalStack=0;resizeParent=1;resizeParentMax=0;resizeLast=0;collapsible=1;marginBottom=0;whiteSpace=wrap;html=1;fillColor=#b0e3e6;strokeColor=#0e8088;" parent="1" vertex="1">
          <mxGeometry x="3630" y="800" width="150" height="270" as="geometry">
            <mxRectangle x="10" y="2370" width="60" height="30" as="alternateBounds" />
          </mxGeometry>
        </mxCell>
        <mxCell id="zCz9-yZ-BNrnuggZIsPc-125" value="_id: string^" style="text;strokeColor=none;fillColor=none;align=left;verticalAlign=middle;spacingLeft=4;spacingRight=4;overflow=hidden;points=[[0,0.5],[1,0.5]];portConstraint=eastwest;rotatable=0;whiteSpace=wrap;html=1;" parent="zCz9-yZ-BNrnuggZIsPc-124" vertex="1">
          <mxGeometry y="30" width="150" height="30" as="geometry" />
        </mxCell>
        <mxCell id="zCz9-yZ-BNrnuggZIsPc-130" value="username: string" style="text;strokeColor=none;fillColor=none;align=left;verticalAlign=middle;spacingLeft=4;spacingRight=4;overflow=hidden;points=[[0,0.5],[1,0.5]];portConstraint=eastwest;rotatable=0;whiteSpace=wrap;html=1;" parent="zCz9-yZ-BNrnuggZIsPc-124" vertex="1">
          <mxGeometry y="60" width="150" height="30" as="geometry" />
        </mxCell>
        <mxCell id="zCz9-yZ-BNrnuggZIsPc-131" value="passwordHash: string" style="text;strokeColor=none;fillColor=none;align=left;verticalAlign=middle;spacingLeft=4;spacingRight=4;overflow=hidden;points=[[0,0.5],[1,0.5]];portConstraint=eastwest;rotatable=0;whiteSpace=wrap;html=1;" parent="zCz9-yZ-BNrnuggZIsPc-124" vertex="1">
          <mxGeometry y="90" width="150" height="30" as="geometry" />
        </mxCell>
        <mxCell id="zCz9-yZ-BNrnuggZIsPc-132" value="email: string" style="text;strokeColor=none;fillColor=none;align=left;verticalAlign=middle;spacingLeft=4;spacingRight=4;overflow=hidden;points=[[0,0.5],[1,0.5]];portConstraint=eastwest;rotatable=0;whiteSpace=wrap;html=1;" parent="zCz9-yZ-BNrnuggZIsPc-124" vertex="1">
          <mxGeometry y="120" width="150" height="30" as="geometry" />
        </mxCell>
        <mxCell id="zCz9-yZ-BNrnuggZIsPc-133" value="avatar: string | null" style="text;strokeColor=none;fillColor=none;align=left;verticalAlign=middle;spacingLeft=4;spacingRight=4;overflow=hidden;points=[[0,0.5],[1,0.5]];portConstraint=eastwest;rotatable=0;whiteSpace=wrap;html=1;" parent="zCz9-yZ-BNrnuggZIsPc-124" vertex="1">
          <mxGeometry y="150" width="150" height="30" as="geometry" />
        </mxCell>
        <mxCell id="zCz9-yZ-BNrnuggZIsPc-135" value="refreshToken: string | null" style="text;strokeColor=none;fillColor=none;align=left;verticalAlign=middle;spacingLeft=4;spacingRight=4;overflow=hidden;points=[[0,0.5],[1,0.5]];portConstraint=eastwest;rotatable=0;whiteSpace=wrap;html=1;" parent="zCz9-yZ-BNrnuggZIsPc-124" vertex="1">
          <mxGeometry y="180" width="150" height="30" as="geometry" />
        </mxCell>
        <mxCell id="EvXCoYh_Iv4l8Tkv4q0_-19" value="role: roles" style="text;strokeColor=#d6b656;fillColor=#fff2cc;align=left;verticalAlign=middle;spacingLeft=4;spacingRight=4;overflow=hidden;points=[[0,0.5],[1,0.5]];portConstraint=eastwest;rotatable=0;whiteSpace=wrap;html=1;" vertex="1" parent="zCz9-yZ-BNrnuggZIsPc-124">
          <mxGeometry y="210" width="150" height="30" as="geometry" />
        </mxCell>
        <mxCell id="EvXCoYh_Iv4l8Tkv4q0_-20" value="lastOnlineDate: Date" style="text;strokeColor=none;fillColor=none;align=left;verticalAlign=middle;spacingLeft=4;spacingRight=4;overflow=hidden;points=[[0,0.5],[1,0.5]];portConstraint=eastwest;rotatable=0;whiteSpace=wrap;html=1;" vertex="1" parent="zCz9-yZ-BNrnuggZIsPc-124">
          <mxGeometry y="240" width="150" height="30" as="geometry" />
        </mxCell>
        <mxCell id="0XB84AuxrN4kMh931Yzv-25" style="edgeStyle=orthogonalEdgeStyle;rounded=0;orthogonalLoop=1;jettySize=auto;html=1;fillColor=#b0e3e6;strokeColor=#0e8088;" parent="1" source="zZ4p3Ma7blZlyQDrdSuo-49" target="zCz9-yZ-BNrnuggZIsPc-124" edge="1">
          <mxGeometry relative="1" as="geometry">
            <Array as="points">
              <mxPoint x="3670" y="1435" />
            </Array>
          </mxGeometry>
        </mxCell>
        <mxCell id="0XB84AuxrN4kMh931Yzv-30" style="edgeStyle=orthogonalEdgeStyle;rounded=0;orthogonalLoop=1;jettySize=auto;html=1;fillColor=#b0e3e6;strokeColor=#0e8088;" parent="1" source="zZ4p3Ma7blZlyQDrdSuo-77" target="zCz9-yZ-BNrnuggZIsPc-124" edge="1">
          <mxGeometry relative="1" as="geometry">
            <Array as="points">
              <mxPoint x="3700" y="1630" />
            </Array>
          </mxGeometry>
        </mxCell>
        <mxCell id="0XB84AuxrN4kMh931Yzv-31" style="edgeStyle=orthogonalEdgeStyle;rounded=0;orthogonalLoop=1;jettySize=auto;html=1;flowAnimation=0;jumpStyle=none;curved=0;fillColor=#b0e3e6;strokeColor=#0e8088;" parent="1" source="zCz9-yZ-BNrnuggZIsPc-89" target="zZ4p3Ma7blZlyQDrdSuo-5" edge="1">
          <mxGeometry relative="1" as="geometry" />
        </mxCell>
        <mxCell id="0XB84AuxrN4kMh931Yzv-35" style="edgeStyle=orthogonalEdgeStyle;rounded=0;orthogonalLoop=1;jettySize=auto;html=1;fillColor=#b0e3e6;strokeColor=#0e8088;" parent="1" source="zCz9-yZ-BNrnuggZIsPc-101" target="zCz9-yZ-BNrnuggZIsPc-124" edge="1">
          <mxGeometry relative="1" as="geometry">
            <Array as="points">
              <mxPoint x="3330" y="1315" />
              <mxPoint x="3330" y="905" />
            </Array>
          </mxGeometry>
        </mxCell>
        <mxCell id="0XB84AuxrN4kMh931Yzv-43" style="edgeStyle=orthogonalEdgeStyle;rounded=0;orthogonalLoop=1;jettySize=auto;html=1;fillColor=#e1d5e7;strokeColor=#9673a6;" parent="1" source="zCz9-yZ-BNrnuggZIsPc-36" target="zCz9-yZ-BNrnuggZIsPc-37" edge="1">
          <mxGeometry relative="1" as="geometry" />
        </mxCell>
        <mxCell id="0XB84AuxrN4kMh931Yzv-44" style="edgeStyle=orthogonalEdgeStyle;rounded=0;orthogonalLoop=1;jettySize=auto;html=1;fillColor=#b0e3e6;strokeColor=#0e8088;" parent="1" source="zCz9-yZ-BNrnuggZIsPc-40" target="zZ4p3Ma7blZlyQDrdSuo-22" edge="1">
          <mxGeometry relative="1" as="geometry" />
        </mxCell>
        <mxCell id="0XB84AuxrN4kMh931Yzv-47" style="edgeStyle=orthogonalEdgeStyle;rounded=0;orthogonalLoop=1;jettySize=auto;html=1;fillColor=#e1d5e7;strokeColor=#9673a6;" parent="1" source="zCz9-yZ-BNrnuggZIsPc-72" target="zCz9-yZ-BNrnuggZIsPc-73" edge="1">
          <mxGeometry relative="1" as="geometry" />
        </mxCell>
        <mxCell id="0XB84AuxrN4kMh931Yzv-48" style="edgeStyle=orthogonalEdgeStyle;rounded=0;orthogonalLoop=1;jettySize=auto;html=1;fillColor=#e1d5e7;strokeColor=#9673a6;" parent="1" source="zCz9-yZ-BNrnuggZIsPc-54" target="zCz9-yZ-BNrnuggZIsPc-55" edge="1">
          <mxGeometry relative="1" as="geometry" />
        </mxCell>
        <mxCell id="0XB84AuxrN4kMh931Yzv-49" style="edgeStyle=orthogonalEdgeStyle;rounded=0;orthogonalLoop=1;jettySize=auto;html=1;fillColor=#e1d5e7;strokeColor=#9673a6;" parent="1" source="zCz9-yZ-BNrnuggZIsPc-7" target="zCz9-yZ-BNrnuggZIsPc-9" edge="1">
          <mxGeometry relative="1" as="geometry" />
        </mxCell>
        <mxCell id="0XB84AuxrN4kMh931Yzv-51" style="edgeStyle=orthogonalEdgeStyle;rounded=0;orthogonalLoop=1;jettySize=auto;html=1;fillColor=#b0e3e6;strokeColor=#0e8088;" parent="1" source="zCz9-yZ-BNrnuggZIsPc-32" target="zCz9-yZ-BNrnuggZIsPc-124" edge="1">
          <mxGeometry relative="1" as="geometry" />
        </mxCell>
        <mxCell id="0XB84AuxrN4kMh931Yzv-53" style="edgeStyle=orthogonalEdgeStyle;rounded=0;orthogonalLoop=1;jettySize=auto;html=1;fillColor=#e1d5e7;strokeColor=#9673a6;" parent="1" source="zCz9-yZ-BNrnuggZIsPc-60" target="zCz9-yZ-BNrnuggZIsPc-61" edge="1">
          <mxGeometry relative="1" as="geometry" />
        </mxCell>
        <mxCell id="6i-AT1Fqz20CTgIHtm6K-4" style="edgeStyle=orthogonalEdgeStyle;rounded=0;orthogonalLoop=1;jettySize=auto;html=1;fillColor=#b0e3e6;strokeColor=#0e8088;" parent="1" source="zZ4p3Ma7blZlyQDrdSuo-92" target="zCz9-yZ-BNrnuggZIsPc-2" edge="1">
          <mxGeometry relative="1" as="geometry" />
        </mxCell>
        <mxCell id="6i-AT1Fqz20CTgIHtm6K-5" style="edgeStyle=orthogonalEdgeStyle;rounded=0;orthogonalLoop=1;jettySize=auto;html=1;fillColor=#b0e3e6;strokeColor=#0e8088;" parent="1" source="6i-AT1Fqz20CTgIHtm6K-2" target="zCz9-yZ-BNrnuggZIsPc-2" edge="1">
          <mxGeometry relative="1" as="geometry">
            <Array as="points">
              <mxPoint x="2390" y="1375" />
            </Array>
          </mxGeometry>
        </mxCell>
        <mxCell id="6i-AT1Fqz20CTgIHtm6K-7" style="edgeStyle=orthogonalEdgeStyle;rounded=0;orthogonalLoop=1;jettySize=auto;html=1;fillColor=#b0e3e6;strokeColor=#0e8088;" parent="1" source="6i-AT1Fqz20CTgIHtm6K-6" target="zZ4p3Ma7blZlyQDrdSuo-47" edge="1">
          <mxGeometry relative="1" as="geometry" />
        </mxCell>
        <mxCell id="6i-AT1Fqz20CTgIHtm6K-11" style="edgeStyle=orthogonalEdgeStyle;rounded=0;orthogonalLoop=1;jettySize=auto;html=1;fillColor=#b0e3e6;strokeColor=#0e8088;" parent="1" source="zCz9-yZ-BNrnuggZIsPc-94" target="zZ4p3Ma7blZlyQDrdSuo-41" edge="1">
          <mxGeometry relative="1" as="geometry" />
        </mxCell>
        <mxCell id="6i-AT1Fqz20CTgIHtm6K-12" style="edgeStyle=orthogonalEdgeStyle;rounded=0;orthogonalLoop=1;jettySize=auto;html=1;fillColor=#b0e3e6;strokeColor=#0e8088;" parent="1" source="zCz9-yZ-BNrnuggZIsPc-92" target="zZ4p3Ma7blZlyQDrdSuo-31" edge="1">
          <mxGeometry relative="1" as="geometry">
            <Array as="points">
              <mxPoint x="2190" y="1205" />
              <mxPoint x="2190" y="1205" />
            </Array>
          </mxGeometry>
        </mxCell>
        <mxCell id="-emMY_bl1AVXrsjhZbCB-3" style="edgeStyle=orthogonalEdgeStyle;rounded=0;orthogonalLoop=1;jettySize=auto;html=1;fillColor=#b0e3e6;strokeColor=#0e8088;" parent="1" source="6i-AT1Fqz20CTgIHtm6K-8" target="zCz9-yZ-BNrnuggZIsPc-2" edge="1">
          <mxGeometry relative="1" as="geometry" />
        </mxCell>
        <mxCell id="jFXlIMssa5CcWGej5E4a-3" value="&lt;span style=&quot;text-align: left;&quot;&gt;relatedAnime&lt;/span&gt;" style="swimlane;fontStyle=0;childLayout=stackLayout;horizontal=1;startSize=30;horizontalStack=0;resizeParent=1;resizeParentMax=0;resizeLast=0;collapsible=1;marginBottom=0;whiteSpace=wrap;html=1;fillColor=#e1d5e7;strokeColor=#9673a6;" parent="1" vertex="1">
          <mxGeometry x="2650" y="1010" width="120" height="120" as="geometry">
            <mxRectangle x="2610" y="1110" width="90" height="30" as="alternateBounds" />
          </mxGeometry>
        </mxCell>
        <mxCell id="jFXlIMssa5CcWGej5E4a-10" value="&lt;div style=&quot;text-align: center;&quot;&gt;&lt;span style=&quot;background-color: initial;&quot;&gt;base: Anime^ | null&lt;/span&gt;&lt;/div&gt;" style="text;strokeColor=#0e8088;fillColor=#b0e3e6;align=left;verticalAlign=middle;spacingLeft=4;spacingRight=4;overflow=hidden;points=[[0,0.5],[1,0.5]];portConstraint=eastwest;rotatable=0;whiteSpace=wrap;html=1;" parent="jFXlIMssa5CcWGej5E4a-3" vertex="1">
          <mxGeometry y="30" width="120" height="30" as="geometry" />
        </mxCell>
        <mxCell id="PQT7-Z1tTUOKTjU1UAjR-1" value="shikiId: number" style="text;strokeColor=none;fillColor=none;align=left;verticalAlign=middle;spacingLeft=4;spacingRight=4;overflow=hidden;points=[[0,0.5],[1,0.5]];portConstraint=eastwest;rotatable=0;whiteSpace=wrap;html=1;" parent="jFXlIMssa5CcWGej5E4a-3" vertex="1">
          <mxGeometry y="60" width="120" height="30" as="geometry" />
        </mxCell>
        <mxCell id="jFXlIMssa5CcWGej5E4a-5" value="relation:&amp;nbsp;&lt;span style=&quot;text-align: center;&quot;&gt;language&lt;/span&gt;" style="text;strokeColor=#b85450;fillColor=#f8cecc;align=left;verticalAlign=middle;spacingLeft=4;spacingRight=4;overflow=hidden;points=[[0,0.5],[1,0.5]];portConstraint=eastwest;rotatable=0;whiteSpace=wrap;html=1;" parent="jFXlIMssa5CcWGej5E4a-3" vertex="1">
          <mxGeometry y="90" width="120" height="30" as="geometry" />
        </mxCell>
        <mxCell id="jFXlIMssa5CcWGej5E4a-11" style="edgeStyle=orthogonalEdgeStyle;rounded=0;orthogonalLoop=1;jettySize=auto;html=1;fillColor=#b0e3e6;strokeColor=#0e8088;" parent="1" source="jFXlIMssa5CcWGej5E4a-10" target="zCz9-yZ-BNrnuggZIsPc-2" edge="1">
          <mxGeometry relative="1" as="geometry">
            <Array as="points">
              <mxPoint x="2560" y="1055" />
              <mxPoint x="2560" y="1055" />
            </Array>
          </mxGeometry>
        </mxCell>
        <mxCell id="jFXlIMssa5CcWGej5E4a-14" style="edgeStyle=orthogonalEdgeStyle;rounded=0;orthogonalLoop=1;jettySize=auto;html=1;fillColor=#e1d5e7;strokeColor=#9673a6;" parent="1" source="jFXlIMssa5CcWGej5E4a-13" target="jFXlIMssa5CcWGej5E4a-3" edge="1">
          <mxGeometry relative="1" as="geometry">
            <Array as="points">
              <mxPoint x="2600" y="1085" />
              <mxPoint x="2600" y="1085" />
            </Array>
          </mxGeometry>
        </mxCell>
        <mxCell id="jFXlIMssa5CcWGej5E4a-15" value="&lt;span style=&quot;text-align: left;&quot;&gt;video&lt;/span&gt;" style="swimlane;fontStyle=0;childLayout=stackLayout;horizontal=1;startSize=30;horizontalStack=0;resizeParent=1;resizeParentMax=0;resizeLast=0;collapsible=1;marginBottom=0;whiteSpace=wrap;html=1;fillColor=#e1d5e7;strokeColor=#9673a6;" parent="1" vertex="1">
          <mxGeometry x="2895" y="1080" width="105" height="90" as="geometry">
            <mxRectangle x="2610" y="1110" width="90" height="30" as="alternateBounds" />
          </mxGeometry>
        </mxCell>
        <mxCell id="jFXlIMssa5CcWGej5E4a-17" value="name:&amp;nbsp;&lt;span style=&quot;text-align: center;&quot;&gt;string | null&lt;/span&gt;" style="text;align=left;verticalAlign=middle;spacingLeft=4;spacingRight=4;overflow=hidden;points=[[0,0.5],[1,0.5]];portConstraint=eastwest;rotatable=0;whiteSpace=wrap;html=1;" parent="jFXlIMssa5CcWGej5E4a-15" vertex="1">
          <mxGeometry y="30" width="105" height="30" as="geometry" />
        </mxCell>
        <mxCell id="jFXlIMssa5CcWGej5E4a-18" value="url: string" style="text;strokeColor=none;fillColor=none;align=left;verticalAlign=middle;spacingLeft=4;spacingRight=4;overflow=hidden;points=[[0,0.5],[1,0.5]];portConstraint=eastwest;rotatable=0;whiteSpace=wrap;html=1;" parent="jFXlIMssa5CcWGej5E4a-15" vertex="1">
          <mxGeometry y="60" width="105" height="30" as="geometry" />
        </mxCell>
        <mxCell id="jFXlIMssa5CcWGej5E4a-19" style="edgeStyle=orthogonalEdgeStyle;rounded=0;orthogonalLoop=1;jettySize=auto;html=1;fillColor=#e1d5e7;strokeColor=#9673a6;" parent="1" source="zCz9-yZ-BNrnuggZIsPc-88" target="jFXlIMssa5CcWGej5E4a-15" edge="1">
          <mxGeometry relative="1" as="geometry">
            <Array as="points">
              <mxPoint x="2895" y="1145" />
            </Array>
          </mxGeometry>
        </mxCell>
        <mxCell id="EvXCoYh_Iv4l8Tkv4q0_-9" value="&lt;span style=&quot;text-align: left;&quot;&gt;roles&lt;/span&gt;" style="swimlane;fontStyle=0;childLayout=stackLayout;horizontal=1;startSize=30;horizontalStack=0;resizeParent=1;resizeParentMax=0;resizeLast=0;collapsible=1;marginBottom=0;whiteSpace=wrap;html=1;fillColor=#fff2cc;strokeColor=#d6b656;" vertex="1" parent="1">
          <mxGeometry x="1870" y="570" width="65" height="120" as="geometry" />
        </mxCell>
        <mxCell id="EvXCoYh_Iv4l8Tkv4q0_-10" value="admin" style="text;strokeColor=none;fillColor=none;align=left;verticalAlign=middle;spacingLeft=4;spacingRight=4;overflow=hidden;points=[[0,0.5],[1,0.5]];portConstraint=eastwest;rotatable=0;whiteSpace=wrap;html=1;" vertex="1" parent="EvXCoYh_Iv4l8Tkv4q0_-9">
          <mxGeometry y="30" width="65" height="30" as="geometry" />
        </mxCell>
        <mxCell id="EvXCoYh_Iv4l8Tkv4q0_-11" value="moderator" style="text;strokeColor=none;fillColor=none;align=left;verticalAlign=middle;spacingLeft=4;spacingRight=4;overflow=hidden;points=[[0,0.5],[1,0.5]];portConstraint=eastwest;rotatable=0;whiteSpace=wrap;html=1;" vertex="1" parent="EvXCoYh_Iv4l8Tkv4q0_-9">
          <mxGeometry y="60" width="65" height="30" as="geometry" />
        </mxCell>
        <mxCell id="EvXCoYh_Iv4l8Tkv4q0_-12" value="user" style="text;strokeColor=none;fillColor=none;align=left;verticalAlign=middle;spacingLeft=4;spacingRight=4;overflow=hidden;points=[[0,0.5],[1,0.5]];portConstraint=eastwest;rotatable=0;whiteSpace=wrap;html=1;" vertex="1" parent="EvXCoYh_Iv4l8Tkv4q0_-9">
          <mxGeometry y="90" width="65" height="30" as="geometry" />
        </mxCell>
      </root>
    </mxGraphModel>
  </diagram>
</mxfile>
